HIERARCHY
ROOT Hips
{
	OFFSET 0.00000 0.00000 0.00000
	CHANNELS 6 Xposition Yposition Zposition Zrotation Yrotation Xrotation 
	JOINT LHipJoint
	{
		OFFSET 0 0 0
		CHANNELS 3 Zrotation Yrotation Xrotation
		JOINT LeftUpLeg
		{
			OFFSET 1.80322 -1.53100 0.99595
			CHANNELS 3 Zrotation Yrotation Xrotation
			JOINT LeftLeg
			{
				OFFSET 2.25177 -6.18669 0.00000
				CHANNELS 3 Zrotation Yrotation Xrotation
				JOINT LeftFoot
				{
					OFFSET 2.26601 -6.22582 0.00000
					CHANNELS 3 Zrotation Yrotation Xrotation
					JOINT LeftToeBase
					{
						OFFSET 0.23701 -0.65119 2.15848
						CHANNELS 3 Zrotation Yrotation Xrotation
						End Site
						{
							OFFSET 0.00000 -0.00000 1.12949
						}
					}
				}
			}
		}
	}
	JOINT RHipJoint
	{
		OFFSET 0 0 0
		CHANNELS 3 Zrotation Yrotation Xrotation
		JOINT RightUpLeg
		{
			OFFSET -1.93977 -1.53100 0.99595
			CHANNELS 3 Zrotation Yrotation Xrotation
			JOINT RightLeg
			{
				OFFSET -2.28036 -6.26523 0.00000
				CHANNELS 3 Zrotation Yrotation Xrotation
				JOINT RightFoot
				{
					OFFSET -2.25490 -6.19528 0.00000
					CHANNELS 3 Zrotation Yrotation Xrotation
					JOINT RightToeBase
					{
						OFFSET -0.28375 -0.77960 2.23137
						CHANNELS 3 Zrotation Yrotation Xrotation
						End Site
						{
							OFFSET -0.00000 -0.00000 1.17899
						}
					}
				}
			}
		}
	}
	JOINT LowerBack
	{
		OFFSET 0 0 0
		CHANNELS 3 Zrotation Yrotation Xrotation
		JOINT Spine
		{
			OFFSET -0.00088 2.12090 -0.02806
			CHANNELS 3 Zrotation Yrotation Xrotation
			JOINT Spine1
			{
				OFFSET -0.00286 2.09666 0.12974
				CHANNELS 3 Zrotation Yrotation Xrotation
				JOINT Neck
				{
					OFFSET 0 0 0
					CHANNELS 3 Zrotation Yrotation Xrotation
					JOINT Neck1
					{
						OFFSET 0.07328 1.83526 0.07290
						CHANNELS 3 Zrotation Yrotation Xrotation
						JOINT Head
						{
							OFFSET -0.06683 1.74974 -0.49542
							CHANNELS 3 Zrotation Yrotation Xrotation
							End Site
							{
								OFFSET -0.03398 1.85163 -0.17573
							}
						}
					}
				}
				JOINT LeftShoulder
				{
					OFFSET 0 0 0
					CHANNELS 3 Zrotation Yrotation Xrotation
					JOINT LeftArm
					{
						OFFSET 3.02113 1.18018 0.40602
						CHANNELS 3 Zrotation Yrotation Xrotation
						JOINT LeftForeArm
						{
							OFFSET 4.58538 -0.00000 -0.00000
							CHANNELS 3 Zrotation Yrotation Xrotation
							JOINT LeftHand
							{
								OFFSET 2.68935 -0.00000 -0.00000
								CHANNELS 3 Zrotation Yrotation Xrotation
								JOINT LeftFingerBase
								{
									OFFSET 0 0 0
									CHANNELS 3 Zrotation Yrotation Xrotation
									JOINT LeftHandIndex1
									{
										OFFSET 0.58506 -0.00000 -0.00000
										CHANNELS 3 Zrotation Yrotation Xrotation
										End Site
										{
											OFFSET 0.47169 -0.00000 -0.00000
										}
									}
								}
								JOINT LThumb
								{
									OFFSET 0 0 0
									CHANNELS 3 Zrotation Yrotation Xrotation
									End Site
									{
										OFFSET 0.47889 -0.00000 0.47889
									}
								}
							}
						}
					}
				}
				JOINT RightShoulder
				{
					OFFSET 0 0 0
					CHANNELS 3 Zrotation Yrotation Xrotation
					JOINT RightArm
					{
						OFFSET -2.95074 1.18843 0.31430
						CHANNELS 3 Zrotation Yrotation Xrotation
						JOINT RightForeArm
						{
							OFFSET -4.47450 -0.00000 -0.00000
							CHANNELS 3 Zrotation Yrotation Xrotation
							JOINT RightHand
							{
								OFFSET -2.93896 -0.00000 -0.00000
								CHANNELS 3 Zrotation Yrotation Xrotation
								JOINT RightFingerBase
								{
									OFFSET 0 0 0
									CHANNELS 3 Zrotation Yrotation Xrotation
									JOINT RightHandIndex1
									{
										OFFSET -0.40509 -0.00000 -0.00000
										CHANNELS 3 Zrotation Yrotation Xrotation
										End Site
										{
											OFFSET -0.32660 -0.00000 -0.00000
										}
									}
								}
								JOINT RThumb
								{
									OFFSET 0 0 0
									CHANNELS 3 Zrotation Yrotation Xrotation
									End Site
									{
										OFFSET -0.33158 -0.00000 0.33158
									}
								}
							}
						}
					}
				}
			}
		}
	}
}
MOTION
Frames: 16
Frame Time: .0083333
-0.7564 15.8222 4.1356 0 0 0 0 0 0 -21 0 0 0 0 0 0 0 0 0 0 0 0 0 0 21 0 0 0 0 0 0 0 0 0 0 0 0 0 0 0 0 0 0 0 0 0 0 -16 0 0 21 0 0 11 0 0 0 -8 0 0 0 0 0 0 0 0 0 0 0 0 0 0 0 0 0 0 0 0 8 0 0 0 0 0 0 0 0 0 0 0 0 0 0 0 0 0
-0.7564 15.8222 4.1356 -4.6261 -2.3821 9.5258 0.0000 0.0000 0.0000 -11.6887 -17.7515 -9.3873 1.7819 8.3962 23.9242 0.9184 5.2622 -20.7444 0.0001 0.0596 0.1639 0.0000 0.0000 0.0000 22.3075 12.7246 -5.9287 -0.7832 -5.6500 15.7722 -0.1375 -10.6055 -17.0400 -0.0303 1.1232 -3.0878 4.4959 -0.1875 -6.7425 -0.2656 -0.4296 -7.3491 -2.8072 -0.4355 -3.8939 -0.4572 -6.6082 -9.9419 -1.1930 -9.2572 30.5522 -1.5380 -4.4383 11.5376 0.0000 -0.0000 0.0000 -85.0033 14.6320 11.6708 17.5072 -27.5215 -4.3191 -0.0000 -0.0000 18.4604 5.6708 13.1657 1.2957 -7.1250 0.0000 -0.0000 -19.3812 42.3548 1.3192 0.0000 -0.0000 0.0000 86.3425 -10.7156 4.1243 -10.1220 16.9302 -1.5103 0.0000 0.0000 27.0088 -8.8184 -6.0275 0.9333 7.1250 -0.0000 -0.0000 14.8998 -35.7321 3.4909
-0.7437 15.8208 4.1590 -4.4930 -2.1219 9.4487 0.0000 0.0000 0.0000 -11.9348 -17.6271 -9.2727 1.7784 8.3885 23.9003 0.9348 4.9387 -20.6918 0.0000 0.0211 0.0580 0.0000 0.0000 0.0000 22.1297 11.8764 -5.9778 -0.7826 -5.6476 15.7653 -0.1888 -10.1054 -17.0932 -0.0360 1.2253 -3.3690 4.4829 -0.2945 -6.9974 -0.2996 -0.5870 -7.2445 -2.8432 -0.5074 -3.6546 -0.6133 -6.7686 -9.8596 -1.1316 -9.4698 30.4073 -1.5083 -4.5487 11.4763 0.0000 -0.0000 0.0000 -85.0743 14.7084 11.4622 17.4568 -27.4560 -4.2958 -0.0000 -0.0000 18.5862 5.6436 13.1548 1.2883 -7.1250 0.0000 -0.0000 -19.4010 42.3417 1.3272 0.0000 -0.0000 0.0000 86.2549 -10.7140 4.0730 -10.1318 16.9454 -1.5131 0.0000 0.0000 26.9122 -8.8318 -5.9349 0.9204 7.1250 -0.0000 -0.0000 14.8704 -35.6423 3.5172
-0.7441 15.8212 4.1367 -4.5905 -2.4077 9.5450 0.0000 0.0000 0.0000 -11.7692 -17.6899 -9.4300 1.7812 8.3946 23.9190 0.9191 5.2138 -20.7200 0.0002 0.0949 0.2608 0.0000 0.0000 0.0000 22.2055 12.8144 -5.9250 -0.7805 -5.6402 15.7440 -0.1330 -10.6616 -17.0508 -0.0288 1.0952 -3.0108 4.4479 -0.2330 -6.7317 -0.2459 -0.4879 -7.3341 -2.7616 -0.4616 -3.8876 -0.7486 -6.9209 -9.7478 -1.0535 -9.6809 30.2721 -1.4748 -4.6543 11.4136 -0.0000 0.0000 0.0000 -85.1164 14.8256 11.3120 17.4163 -27.4034 -4.2772 -0.0000 -0.0000 18.6554 5.6317 13.1923 1.2892 -7.1250 0.0000 -0.0000 -19.4234 42.3761 1.3117 -0.0000 0.0000 0.0000 86.2135 -10.7251 3.8747 -10.1161 16.9210 -1.5086 0.0000 0.0000 26.9384 -8.8764 -5.6290 0.8776 7.1250 -0.0000 -0.0000 14.7738 -35.3458 3.6033
-0.7370 15.8219 4.1406 -4.5619 -2.4055 9.5616 0.0000 0.0000 0.0000 -11.8309 -17.6530 -9.4450 1.7814 8.3951 23.9206 0.9229 5.1529 -20.7162 0.0003 0.1139 0.3129 0.0000 0.0000 0.0000 22.1438 12.7495 -5.9339 -0.7791 -5.6353 15.7299 -0.1359 -10.6243 -17.0428 -0.0312 1.1398 -3.1335 4.4231 -0.2689 -6.7843 -0.2431 -0.5379 -7.3128 -2.7468 -0.4841 -3.8392 -1.0293 -7.1525 -9.6465 -0.8993 -9.9995 30.1382 -1.4049 -4.8154 11.3683 0.0000 -0.0000 0.0000 -85.1907 14.9306 11.1274 17.3817 -27.3582 -4.2613 -0.0000 -0.0000 18.6923 5.5536 13.2062 1.2725 -7.1250 0.0000 -0.0000 -19.4949 42.3814 1.3143 0.0000 -0.0000 0.0000 86.1821 -10.6935 3.9142 -10.1472 16.9695 -1.5176 0.0000 0.0000 26.7457 -8.9069 -5.6471 0.8835 7.1250 -0.0000 -0.0000 14.7526 -35.3650 3.5907
-0.7310 15.8223 4.1398 -4.5554 -2.4505 9.5879 0.0000 0.0000 0.0000 -11.8542 -17.6383 -9.4896 1.7847 8.4024 23.9431 0.9239 5.1555 -20.7274 0.0004 0.1368 0.3759 0.0000 0.0000 0.0000 22.1040 12.8456 -5.9302 -0.7766 -5.6265 15.7044 -0.1294 -10.6781 -17.0245 -0.0312 1.1411 -3.1371 4.3994 -0.2861 -6.7779 -0.2310 -0.5596 -7.3123 -2.7217 -0.4937 -3.8433 -1.2456 -7.3396 -9.5375 -0.7774 -10.2578 30.0073 -1.3491 -4.9460 11.3179 0.0000 -0.0000 0.0000 -85.2606 15.0411 10.9654 17.3478 -27.3140 -4.2457 -0.0000 -0.0000 18.7248 5.5065 13.2321 1.2641 -7.1250 0.0000 -0.0000 -19.5438 42.4012 1.3079 0.0000 -0.0000 0.0000 86.1443 -10.6778 3.9133 -10.1688 17.0031 -1.5239 0.0000 0.0000 26.5911 -8.9283 -5.6020 0.8786 7.1250 -0.0000 -0.0000 14.7264 -35.3221 3.5998
-0.7251 15.8229 4.1387 -4.5513 -2.5053 9.6171 0.0000 0.0000 0.0000 -11.8756 -17.6250 -9.5219 1.7839 8.4007 23.9378 0.9225 5.1766 -20.7276 0.0006 0.1607 0.4414 0.0000 0.0000 0.0000 22.0652 12.9604 -5.9376 -0.7762 -5.6250 15.7002 -0.1234 -10.7330 -17.0158 -0.0312 1.1397 -3.1333 4.3767 -0.3008 -6.7670 -0.2186 -0.5776 -7.3155 -2.6965 -0.5017 -3.8535 -1.4566 -7.5128 -9.4284 -0.6501 -10.4993 29.8876 -1.2909 -5.0676 11.2730 -0.0000 0.0000 0.0000 -85.3349 15.1586 10.8206 17.3183 -27.2754 -4.2322 -0.0000 -0.0000 18.7341 5.4591 13.2597 1.2557 -7.1250 0.0000 -0.0000 -19.5935 42.4226 1.3007 -0.0000 0.0000 0.0000 86.1147 -10.6608 3.9498 -10.1980 17.0486 -1.5325 0.0000 0.0000 26.4025 -8.9449 -5.5887 0.8782 7.1250 -0.0000 -0.0000 14.7103 -35.3098 3.6002
-0.7183 15.8234 4.1392 -4.5421 -2.5410 9.6398 0.0000 0.0000 0.0000 -11.9093 -17.6075 -9.5476 1.7842 8.4012 23.9395 0.9226 5.1768 -20.7291 0.0008 0.1788 0.4912 0.0000 0.0000 0.0000 22.0202 13.0075 -5.9451 -0.7751 -5.6214 15.6898 -0.1213 -10.7479 -17.0076 -0.0316 1.1467 -3.1525 4.3613 -0.3195 -6.7740 -0.2102 -0.6024 -7.3127 -2.6799 -0.5131 -3.8481 -1.6455 -7.6694 -9.3289 -0.5313 -10.7196 29.7808 -1.2375 -5.1777 11.2339 0.0000 -0.0000 0.0000 -85.4140 15.2784 10.6915 17.2897 -27.2381 -4.2191 -0.0000 -0.0000 18.7403 5.4119 13.2825 1.2469 -7.1250 0.0000 -0.0000 -19.6414 42.4394 1.2956 0.0000 -0.0000 0.0000 86.0929 -10.6396 4.0233 -10.2357 17.1075 -1.5436 0.0000 0.0000 26.1825 -8.9495 -5.6094 0.8819 7.1250 -0.0000 -0.0000 14.7106 -35.3304 3.5927
-0.7114 15.8239 4.1396 -4.5337 -2.5780 9.6614 0.0000 0.0000 0.0000 -11.9435 -17.5896 -9.5729 1.7844 8.4019 23.9415 0.9227 5.1774 -20.7302 0.0009 0.1950 0.5357 0.0000 0.0000 0.0000 21.9752 13.0544 -5.9519 -0.7741 -5.6178 15.6795 -0.1195 -10.7613 -17.0003 -0.0319 1.1526 -3.1689 4.3482 -0.3366 -6.7762 -0.2023 -0.6248 -7.3115 -2.6651 -0.5235 -3.8469 -1.8125 -7.8087 -9.2409 -0.4195 -10.9180 29.6887 -1.1887 -5.2759 11.2015 -0.0000 -0.0000 0.0000 -85.4975 15.4017 10.5779 17.2616 -27.2013 -4.2062 -0.0000 -0.0000 18.7517 5.3639 13.3035 1.2377 -7.1250 0.0000 -0.0000 -19.6896 42.4544 1.2915 -0.0000 -0.0000 0.0000 86.0786 -10.6162 4.1219 -10.2799 17.1761 -1.5566 0.0000 0.0000 25.9469 -8.9453 -5.6343 0.8854 7.1250 -0.0000 -0.0000 14.7190 -35.3545 3.5859
-0.7041 15.8243 4.1399 -4.5269 -2.6172 9.6817 0.0000 0.0000 0.0000 -11.9770 -17.5692 -9.5969 1.7847 8.4023 23.9430 0.9228 5.1765 -20.7311 0.0011 0.2101 0.5771 0.0000 0.0000 0.0000 21.9316 13.1053 -5.9568 -0.7732 -5.6146 15.6703 -0.1176 -10.7762 -16.9950 -0.0322 1.1592 -3.1870 4.3386 -0.3506 -6.7736 -0.1958 -0.6429 -7.3114 -2.6534 -0.5321 -3.8494 -1.9468 -7.9240 -9.1685 -0.3206 -11.0853 29.6131 -1.1472 -5.3574 11.1758 0.0000 0.0000 0.0000 -85.5841 15.5268 10.4755 17.2330 -27.1640 -4.1932 -0.0000 -0.0000 18.7830 5.3122 13.3173 1.2270 -7.1250 0.0000 -0.0000 -19.7384 42.4621 1.2910 0.0000 0.0000 0.0000 86.0739 -10.5919 4.2434 -10.3313 17.2561 -1.5718 0.0000 0.0000 25.6984 -8.9328 -5.6616 0.8884 7.1250 -0.0000 -0.0000 14.7344 -35.3805 3.5802
-0.6968 15.8247 4.1402 -4.5217 -2.6577 9.7013 0.0000 0.0000 0.0000 -12.0094 -17.5455 -9.6212 1.7849 8.4028 23.9445 0.9230 5.1723 -20.7300 0.0012 0.2248 0.6176 0.0000 0.0000 0.0000 21.8894 13.1562 -5.9615 -0.7724 -5.6119 15.6623 -0.1158 -10.7907 -16.9891 -0.0328 1.1686 -3.2128 4.3312 -0.3623 -6.7662 -0.1898 -0.6580 -7.3119 -2.6434 -0.5393 -3.8549 -2.0658 -8.0402 -9.1062 -0.2326 -11.2540 29.5437 -1.1129 -5.4390 11.1531 0.0000 0.0000 0.0000 -85.6755 15.6501 10.3735 17.2018 -27.1231 -4.1789 -0.0000 -0.0000 18.8442 5.2582 13.3125 1.2140 -7.1250 0.0000 -0.0000 -19.7832 42.4522 1.2993 0.0000 0.0000 0.0000 86.0769 -10.5630 4.3800 -10.3869 17.3425 -1.5883 0.0000 0.0000 25.4464 -8.9147 -5.6647 0.8870 7.1250 -0.0000 -0.0000 14.7497 -35.3826 3.5834
-0.6892 15.8252 4.1404 -4.5155 -2.7000 9.7208 0.0000 0.0000 0.0000 -12.0434 -17.5150 -9.6469 1.7849 8.4029 23.9448 0.9233 5.1644 -20.7275 0.0014 0.2381 0.6543 0.0000 0.0000 0.0000 21.8460 13.2008 -5.9682 -0.7719 -5.6098 15.6563 -0.1142 -10.8003 -16.9801 -0.0337 1.1852 -3.2586 4.3222 -0.3726 -6.7595 -0.1845 -0.6711 -7.3094 -2.6332 -0.5454 -3.8568 -2.1829 -8.1471 -9.0607 -0.1387 -11.4117 29.4861 -1.0769 -5.5141 11.1389 -0.0000 0.0000 0.0000 -85.7727 15.7636 10.2660 17.1681 -27.0789 -4.1636 -0.0000 -0.0000 18.9284 5.1922 13.3046 1.1980 -7.1250 0.0000 -0.0000 -19.8372 42.4382 1.3103 -0.0000 0.0000 0.0000 86.0864 -10.5266 4.5484 -10.4502 17.4407 -1.6073 0.0000 0.0000 25.1718 -8.8968 -5.6628 0.8849 7.1250 -0.0000 -0.0000 14.7638 -35.3798 3.5881
-0.6816 15.8258 4.1407 -4.5090 -2.7441 9.7400 0.0000 0.0000 0.0000 -12.0786 -17.4796 -9.6720 1.7846 8.4023 23.9429 0.9236 5.1544 -20.7237 0.0015 0.2523 0.6933 0.0000 0.0000 0.0000 21.8020 13.2476 -5.9748 -0.7716 -5.6087 15.6532 -0.1127 -10.8095 -16.9723 -0.0347 1.2019 -3.3044 4.3114 -0.3823 -6.7516 -0.1784 -0.6833 -7.3070 -2.6211 -0.5509 -3.8593 -2.2852 -8.2458 -9.0172 -0.0553 -11.5573 29.4286 -1.0456 -5.5834 11.1236 0.0000 0.0000 0.0000 -85.8763 15.8724 10.1508 17.1338 -27.0338 -4.1480 -0.0000 -0.0000 19.0215 5.1242 13.2848 1.1805 -7.1250 0.0000 -0.0000 -19.8889 42.4127 1.3271 0.0000 0.0000 0.0000 86.0995 -10.4911 4.7572 -10.5224 17.5525 -1.6290 0.0000 0.0000 24.8572 -8.8818 -5.6608 0.8831 7.1250 -0.0000 -0.0000 14.7756 -35.3771 3.5921
-0.6739 15.8264 4.1408 -4.5025 -2.7895 9.7596 0.0000 0.0000 0.0000 -12.1138 -17.4410 -9.6980 1.7840 8.4010 23.9387 0.9237 5.1438 -20.7178 0.0017 0.2679 0.7362 0.0000 0.0000 0.0000 21.7572 13.2940 -5.9843 -0.7715 -5.6086 15.6530 -0.1113 -10.8170 -16.9635 -0.0357 1.2199 -3.3539 4.3002 -0.3903 -6.7435 -0.1721 -0.6932 -7.3040 -2.6084 -0.5552 -3.8610 -2.3728 -8.3383 -8.9758 0.0169 -11.6934 29.3688 -1.0195 -5.6481 11.1061 0.0000 0.0000 0.0000 -85.9831 15.9707 10.0354 17.0988 -26.9878 -4.1321 -0.0000 -0.0000 19.1057 5.0530 13.2647 1.1623 -7.1250 0.0000 -0.0000 -19.9432 42.3866 1.3446 0.0000 0.0000 0.0000 86.1168 -10.4557 5.0030 -10.6045 17.6796 -1.6538 0.0000 0.0000 24.4959 -8.8717 -5.6609 0.8821 7.1250 -0.0000 -0.0000 14.7838 -35.3766 3.5944
-0.6660 15.8270 4.1408 -4.4928 -2.8379 9.7777 0.0000 0.0000 0.0000 -12.1539 -17.4030 -9.7212 1.7833 8.3994 23.9338 0.9238 5.1358 -20.7141 0.0020 0.2881 0.7917 0.0000 0.0000 0.0000 21.7082 13.3459 -5.9920 -0.7716 -5.6089 15.6538 -0.1099 -10.8259 -16.9566 -0.0365 1.2335 -3.3916 4.2849 -0.3970 -6.7356 -0.1656 -0.7012 -7.2995 -2.5933 -0.5584 -3.8608 -2.4580 -8.4223 -8.9334 0.0892 -11.8175 29.3077 -0.9921 -5.7071 11.0877 -0.0000 -0.0000 0.0000 -86.0941 16.0615 9.9254 17.0665 -26.9454 -4.1174 -0.0000 -0.0000 19.1606 4.9828 13.2507 1.1449 -7.1250 0.0000 -0.0000 -19.9988 42.3665 1.3591 -0.0000 -0.0000 0.0000 86.1353 -10.4281 5.2989 -10.7005 17.8277 -1.6831 0.0000 0.0000 24.0721 -8.8752 -5.6580 0.8820 7.1250 -0.0000 -0.0000 14.7804 -35.3740 3.5945
-0.6581 15.8275 4.1407 -4.4819 -2.8877 9.7931 0.0000 0.0000 0.0000 -12.1973 -17.3661 -9.7403 1.7825 8.3975 23.9281 0.9238 5.1310 -20.7110 0.0023 0.3100 0.8516 0.0000 0.0000 0.0000 21.6569 13.4053 -5.9972 -0.7718 -5.6097 15.6561 -0.1084 -10.8384 -16.9529 -0.0370 1.2421 -3.4153 4.2693 -0.4016 -6.7257 -0.1597 -0.7065 -7.2929 -2.5786 -0.5600 -3.8592 -2.5365 -8.5006 -8.8953 0.1575 -11.9333 29.2464 -0.9663 -5.7620 11.0695 -0.0000 0.0000 0.0000 -86.2047 16.1421 9.8266 17.0353 -26.9043 -4.1033 -0.0000 -0.0000 19.1851 4.9152 13.2434 1.1286 -7.1250 0.0000 -0.0000 -20.0542 42.3528 1.3703 -0.0000 0.0000 0.0000 86.1574 -10.4043 5.6395 -10.8094 17.9954 -1.7166 0.0000 0.0000 23.5886 -8.8801 -5.6660 0.8837 7.1250 -0.0000 -0.0000 14.7780 -35.3821 3.5909
